<svg viewBox="0 0 32 32" width="24" height="24" xmlns="http://www.w3.org/2000/svg" fill-rule="evenodd" clip-rule="evenodd" stroke-linejoin="round" stroke-miterlimit="2"><path d="M31.464 16.243c0-1.296-.105-2.242-.333-3.223H16.326v5.852h8.69c-.175 1.454-1.121 3.644-3.224 5.116l-.029.196 4.681 3.626.324.032c2.979-2.751 4.696-6.798 4.696-11.599" fill="#4285f4" fill-rule="nonzero"/><path d="M16.326 31.662c4.257 0 7.831-1.402 10.442-3.82l-4.976-3.854c-1.331.928-3.118 1.576-5.466 1.576-4.17 0-7.709-2.75-8.971-6.552l-.185.016-4.867 3.766-.064.177c2.593 5.152 7.919 8.691 14.087 8.691" fill="#34a853" fill-rule="nonzero"/><path d="M7.355 19.012a9.706 9.706 0 01-.525-3.119c0-1.086.192-2.137.508-3.119l-.009-.209L2.4 8.738l-.161.077a15.778 15.778 0 00-1.682 7.078c0 2.541.613 4.941 1.682 7.078l5.116-3.959" fill="#fbbc05" fill-rule="nonzero"/><path d="M16.326 6.222c2.961 0 4.958 1.279 6.097 2.347l4.45-4.345c-2.733-2.54-6.29-4.1-10.547-4.1-6.168 0-11.494 3.54-14.087 8.691l5.099 3.959c1.279-3.802 4.818-6.552 8.988-6.552" fill="#eb4335" fill-rule="nonzero"/></svg>
