<svg viewBox="0 0 32 32" xmlns="http://www.w3.org/2000/svg" fill-rule="evenodd" clip-rule="evenodd" stroke-linejoin="round" stroke-miterlimit="2"><path d="M30.614 17.06a3.069 3.069 0 00.786-2.052 3.083 3.083 0 00-3.08-3.078h-5.978c.592-1.796.845-4.179.845-5.2V5.705A4.111 4.111 0 0019.08 1.6h-1.027c-.471 0-.881.32-.996.777l-.559 2.236c-.783 3.132-3.271 6.587-5.846 7.215a3.084 3.084 0 00-2.865-1.951h-6.16c-.567 0-1.027.46-1.027 1.027v18.47c0 .566.46 1.026 1.027 1.026h6.16a3.084 3.084 0 002.78-1.755l3.528 1.176c1.153.384 2.355.579 3.571.579h8.601a3.083 3.083 0 002.863-4.213 3.085 3.085 0 002.27-2.97c0-.787-.298-1.507-.786-2.052a3.069 3.069 0 000-4.105zM8.813 27.322c0 .565-.46 1.026-1.026 1.026H2.653V11.93h5.134c.566 0 1.026.46 1.026 1.026v14.366zm17.454-9.236h2.053c.566 0 1.027.461 1.027 1.027 0 .565-.461 1.026-1.027 1.026h-2.053a1.026 1.026 0 100 2.052h2.053c.566 0 1.027.46 1.027 1.026 0 .566-.461 1.026-1.027 1.026h-2.053a1.027 1.027 0 000 2.052 1.028 1.028 0 010 2.053h-8.601c-.995 0-1.979-.16-2.923-.474l-3.876-1.292V13.885c1.61-.306 3.186-1.325 4.609-2.994 1.39-1.629 2.516-3.79 3.014-5.78l.365-1.459h.225c1.132 0 2.053.921 2.053 2.053V6.73c0 1.378-.431 4.02-.983 5.2h-2.097a1.026 1.026 0 000 2.052H28.32c.566 0 1.027.46 1.027 1.026 0 .566-.461 1.026-1.027 1.026h-2.053a1.027 1.027 0 000 2.052z" fill-rule="nonzero"/></svg>