<svg viewBox="0 0 32 32" width="24" height="24" xmlns="http://www.w3.org/2000/svg" fill-rule="evenodd" clip-rule="evenodd" stroke-linejoin="round" stroke-miterlimit="2" fill="#ffffff"><path d="M15.967.105C7.205.105.102 7.209.102 15.971s7.103 15.864 15.865 15.864c8.763 0 15.865-7.102 15.865-15.864S24.729.105 15.967.105zm7.992 12.667c.008.171.012.343.012.517 0 5.284-4.022 11.376-11.376 11.376a11.32 11.32 0 01-6.129-1.796c.313.037.631.055.953.055a8.023 8.023 0 004.966-1.711 4.004 4.004 0 01-3.734-2.777 3.981 3.981 0 001.805-.069 4 4 0 01-3.208-3.92l.001-.051a3.999 3.999 0 001.811.501 3.997 3.997 0 01-1.779-3.329c0-.732.197-1.42.541-2.01a11.35 11.35 0 008.242 4.177 3.998 3.998 0 013.895-4.909c1.15 0 2.188.486 2.918 1.262a7.98 7.98 0 002.539-.97 4.012 4.012 0 01-1.759 2.212 7.998 7.998 0 002.297-.63 8.072 8.072 0 01-1.995 2.072z" fill-rule="nonzero"/></svg>
